PathFileType	4	(X/Y/Z)	C:\Users\chris\Documents\GitHub\baseballds\vids\pitch5_Sports2D\pitch5_Sports2D_px_person00.trc
DataRate	CameraRate	NumFrames	NumMarkers	Units	OrigDataRate	OrigDataStartFrame	OrigNumFrames
30	30	5	22	m	30	18	149
Frame#	Time	Hip			RHip			RKnee			RAnkle			RBigToe			RSmallToe			RHeel			LHip			LKnee			LAnkle			LBigToe			LSmallToe			LHeel			Neck			Head			Nose			RShoulder			RElbow			RWrist			LShoulder			LElbow			LWrist		
		X1	Y1	Z1	X2	Y2	Z2	X3	Y3	Z3	X4	Y4	Z4	X5	Y5	Z5	X6	Y6	Z6	X7	Y7	Z7	X8	Y8	Z8	X9	Y9	Z9	X10	Y10	Z10	X11	Y11	Z11	X12	Y12	Z12	X13	Y13	Z13	X14	Y14	Z14	X15	Y15	Z15	X16	Y16	Z16	X17	Y17	Z17	X18	Y18	Z18	X19	Y19	Z19	X20	Y20	Z20	X21	Y21	Z21	X22	Y22	Z22
18	0.6	716.5937524905883	561.635427395669	0.0	665.2329620869336	581.9372834803796	0.0	666.3377379672265	775.8845605954114	0.0	664.832444777796	946.3011762369105	0.0	672.5619025965655	1008.2161441430078	0.0	638.9206574093662	1005.9199391232022	0.0	672.5609988448475	969.3926554164227	0.0	766.4164722012893	581.5393965892588	0.0	792.2148111166847	768.8954796952604	0.0	831.6975799270823	929.2307979054597	0.0	798.2460171404153	996.4952118318995	0.0	833.3623151235212	996.4167741329144	0.0	843.851928848938	955.0582571446374	0.0	707.706595354948	280.98730232540134	0.0	730.3387152297255	165.94743896555943	0.0	742.8407986651988	255.61116126326723	0.0	610.4064765517985	322.5525431629891	0.0	591.8651019637601	455.4619948441507	0.0	661.2431031462723	432.2550154031479	0.0	797.6815969487818	317.8264057660429	0.0	818.1256769871856	463.26178171991717	0.0	781.2674917457184	466.7672265540157	0.0
19	0.6333333333333333	716.9983610135187	563.0412827948735	0.0	665.7359416959828	582.9300342916764	0.0	666.5250561471619	775.7405007921991	0.0	664.8268977414562	946.9693032645567	0.0	673.8220892752568	1009.375796523406	0.0	639.9958566984475	1007.3882082632059	0.0	672.3276196430104	969.3077459176739	0.0	767.1887199365472	582.4604907392101	0.0	792.7835005870036	770.0139121731111	0.0	834.0734476584989	931.5851939790055	0.0	795.7344358165025	998.638019136378	0.0	831.3237706674231	999.3836216632519	0.0	847.1457171705308	957.9633212598342	0.0	708.9105529929927	283.4871075546576	0.0	731.152763959071	166.6740917190321	0.0	744.4436944018344	256.16922949212466	0.0	611.9103455433651	323.6066376066368	0.0	592.6749974867199	455.6630722022975	0.0	661.2792208333924	431.86543010024616	0.0	798.8209694351781	319.0814978294952	0.0	819.9368021776331	464.5639302560348	0.0	781.2990892464938	465.264084088248	0.0
20	0.6666666666666666	718.0454897286618	565.0463881595617	0.0	666.7713241115097	584.1650297349096	0.0	666.7665390454382	776.1071798252729	0.0	665.2159488365638	947.2548376523436	0.0	675.1781639949487	1010.1209133599485	0.0	641.2164289855089	1007.6542380255855	0.0	671.8883581142854	968.7675446139295	0.0	768.5334068767033	584.2684235725307	0.0	793.5745368061607	771.9346080355137	0.0	835.9477739230489	934.7144837427473	0.0	793.7859942271341	1001.4865479852807	0.0	829.2017217501094	1002.3889404206903	0.0	849.3183253687184	961.8834297387217	0.0	710.9075009063697	286.31370391353767	0.0	732.3853787577666	167.88608390927158	0.0	746.8644666224213	255.82708856156074	0.0	613.8538311659257	324.99252489849584	0.0	594.0539564808735	456.4779876316109	0.0	662.4848425892048	431.6670637274758	0.0	800.9375946469886	320.96763704069474	0.0	821.6557853406988	466.26514745474674	0.0	781.2206643940237	462.61054167240854	0.0
21	0.7	719.7485291752153	567.2095598714124	0.0	668.3758098181302	586.2461554587326	0.0	667.6292921667535	776.9088374933092	0.0	665.6619130285022	947.3651760353964	0.0	676.1381303166974	1009.682713383606	0.0	642.3006682625625	1006.9193191846174	0.0	671.2983753531879	969.093105027613	0.0	770.2288433619253	586.6495518015467	0.0	794.8085649100533	773.9100336282889	0.0	837.0044122042068	936.5393702130702	0.0	794.6659992569415	1002.8791587961271	0.0	829.251390173633	1003.9415994276999	0.0	850.1665592538606	963.9778318389374	0.0	712.787894061318	288.48682663997573	0.0	734.6066049945725	168.80783034358646	0.0	751.3506135772641	254.70974035051591	0.0	616.5537346270712	326.60992405933683	0.0	596.2293089775683	457.49586764517835	0.0	664.1496454089835	431.5419544077055	0.0	803.661887372106	322.9333141534506	0.0	823.6139742863434	468.4062400834298	0.0	781.2710302669184	459.36481639796546	0.0
22	0.7333333333333333	721.4457399191401	568.3955410130644	0.0	670.1536057823396	588.0284120255172	0.0	669.1752681510601	778.1227711302614	0.0	666.1028439293409	948.021492787836	0.0	676.5087811169778	1009.6283672364202	0.0	642.9652026260081	1006.5895569245695	0.0	671.0732042151091	970.7338945283992	0.0	771.7613212431839	588.4383730352769	0.0	796.0349221680682	775.4421530937457	0.0	837.332013556952	937.475653087656	0.0	796.5278984679564	1003.5425019286453	0.0	830.8025408287349	1005.0857094181217	0.0	850.3391507623406	964.6962581326712	0.0	714.0873080596525	289.9243434743638	0.0	738.0138282446868	168.88249898463528	0.0	758.2160962139312	252.95463153042942	0.0	619.5656622961865	328.15644319194917	0.0	599.1369764331465	458.6333394141337	0.0	666.0266439239133	431.3333708233066	0.0	806.6693606509143	324.84003371191136	0.0	824.5594323031457	471.55642898591645	0.0	779.9274340073564	458.0297786841424	0.0
